<svg width="24" height="24" viewBox="0 0 24 24" fill="none" xmlns="http://www.w3.org/2000/svg">
<path fill-rule="evenodd" clip-rule="evenodd" d="M8.59982 5.75C7.61721 5.74977 6.66488 6.09002 5.90489 6.71286C5.14493 7.33568 4.62425 8.20257 4.43144 9.16604C4.43144 9.16607 4.43145 9.166 4.43144 9.16604L2.79744 17.339C2.73154 17.6686 2.77452 18.0107 2.91993 18.3137C3.06533 18.6167 3.30528 18.8642 3.60361 19.0189C3.90194 19.1737 4.24249 19.2273 4.57393 19.1717C4.90537 19.116 5.20975 18.9542 5.4412 18.7105L9.45621 14.4835C9.5978 14.3344 9.79439 14.25 10 14.25H15.5C16.6272 14.25 17.7082 13.8022 18.5052 13.0052C19.3022 12.2082 19.75 11.1272 19.75 10C19.75 9.82271 19.7389 9.64656 19.7171 9.47248L19.6588 9.17215C19.6518 9.13602 19.6475 9.10002 19.6457 9.06431C19.4702 8.28668 19.0778 7.56744 18.5052 6.9948C17.7082 6.19777 16.6272 5.75 15.5 5.75H8.59982ZM20.4034 13.0032C20.1689 13.3861 19.8885 13.7432 19.5659 14.0659C18.5447 15.087 17.1791 15.6844 15.7421 15.7449L18.6136 18.7674C18.6136 18.7674 18.6137 18.7674 18.6136 18.7674C18.8446 19.0104 19.1483 19.172 19.4788 19.2279C19.8094 19.2838 20.1493 19.231 20.4473 19.0774C20.7454 18.9238 20.9856 18.6776 21.1319 18.3759C21.2782 18.0743 21.3227 17.7333 21.2588 17.4041C21.2588 17.4041 21.2588 17.4042 21.2588 17.4041L20.4034 13.0032ZM13.678 15.75L17.5263 19.8006C17.9808 20.2789 18.5782 20.597 19.2288 20.7069C19.8794 20.8169 20.548 20.713 21.1345 20.4107C21.721 20.1084 22.1936 19.6241 22.4815 19.0304C22.7694 18.4368 22.857 17.7657 22.7312 17.118L21.1985 9.23236C21.0313 7.99079 20.4616 6.8299 19.5659 5.93414C18.4875 4.8558 17.025 4.25 15.5 4.25L8.60018 4.25C8.60012 4.25 8.60023 4.25 8.60018 4.25C7.27083 4.24973 5.98227 4.71007 4.9541 5.5527C3.92587 6.39536 3.22141 7.56828 2.96057 8.87185L1.32656 17.0449C1.32656 17.0449 1.32656 17.0449 1.32656 17.0449C1.19689 17.6934 1.28147 18.3665 1.56759 18.9627C1.85372 19.5589 2.32587 20.0459 2.91291 20.3505C3.49994 20.655 4.17004 20.7604 4.82224 20.651C5.47442 20.5415 6.07336 20.223 6.52879 19.7435C6.52879 19.7435 6.52879 19.7435 6.52879 19.7435L10.322 15.75H13.678ZM8 8.25C8.41421 8.25 8.75 8.58579 8.75 9V9.25H9C9.41421 9.25 9.75 9.58579 9.75 10C9.75 10.4142 9.41421 10.75 9 10.75H8.75V11C8.75 11.4142 8.41421 11.75 8 11.75C7.58578 11.75 7.25 11.4142 7.25 11V10.75H7C6.58578 10.75 6.25 10.4142 6.25 10C6.25 9.58579 6.58578 9.25 7 9.25H7.25V9C7.25 8.58579 7.58578 8.25 8 8.25ZM13.25 10C13.25 9.58579 13.5858 9.25 14 9.25H16C16.4142 9.25 16.75 9.58579 16.75 10C16.75 10.4142 16.4142 10.75 16 10.75H14C13.5858 10.75 13.25 10.4142 13.25 10Z" fill="#F0F7F8"/>
</svg>
