<svg width="20" height="20" viewBox="0 0 20 20" fill="none" xmlns="http://www.w3.org/2000/svg">
<path fill-rule="evenodd" clip-rule="evenodd" d="M9.46966 0.46967C9.76255 0.176777 10.2374 0.176777 10.5303 0.46967L19.5303 9.46967C19.7448 9.68417 19.809 10.0068 19.6929 10.287C19.5768 10.5673 19.3033 10.75 19 10.75H17.75V17C17.75 17.7293 17.4603 18.4288 16.9445 18.9445C16.4288 19.4603 15.7293 19.75 15 19.75H4.99999C4.27065 19.75 3.57117 19.4603 3.05545 18.9445C2.53972 18.4288 2.24999 17.7293 2.24999 17V10.75H0.999991C0.696645 10.75 0.423168 10.5673 0.307082 10.287C0.190996 10.0068 0.255163 9.68417 0.469661 9.46967L9.46966 0.46967ZM7.74999 18.25H12.25V13C12.25 12.6685 12.1183 12.3505 11.8839 12.1161C11.6495 11.8817 11.3315 11.75 11 11.75H8.99999C8.66847 11.75 8.35053 11.8817 8.11611 12.1161C7.88169 12.3505 7.74999 12.6685 7.74999 13V18.25ZM13.75 18.25V13C13.75 12.2707 13.4603 11.5712 12.9445 11.0555C12.4288 10.5397 11.7293 10.25 11 10.25H8.99999C8.27065 10.25 7.57117 10.5397 7.05545 11.0555C6.53972 11.5712 6.24999 12.2707 6.24999 13V18.25H4.99999C4.66847 18.25 4.35053 18.1183 4.11611 17.8839C3.88169 17.6495 3.74999 17.3315 3.74999 17V10C3.74999 9.58579 3.41421 9.25 2.99999 9.25H2.81065L9.99999 2.06066L17.1893 9.25H17C16.5858 9.25 16.25 9.58579 16.25 10V17C16.25 17.3315 16.1183 17.6495 15.8839 17.8839C15.6495 18.1183 15.3315 18.25 15 18.25H13.75Z" fill="#F0F7F8"/>
</svg>
