<svg width="24" height="24" viewBox="0 0 24 24" fill="none" xmlns="http://www.w3.org/2000/svg">
<path fill-rule="evenodd" clip-rule="evenodd" d="M12.3937 4.73658C10.3729 4.65464 8.39698 5.22889 6.83373 6.33792C5.27207 7.44584 4.23674 9.00448 3.89131 10.711C3.54634 12.4153 3.90662 14.1791 4.92131 15.6799C5.05191 15.873 5.08524 16.1159 5.01151 16.3371L4.12602 18.9936L7.54392 18.2664C7.70719 18.2316 7.87738 18.2524 8.02755 18.3253C9.79171 19.1817 11.8539 19.4423 13.826 19.0516C15.798 18.6609 17.5243 17.6505 18.6951 16.23C19.8637 14.8124 20.4025 13.0815 20.2336 11.3581C20.0647 9.63339 19.1954 8.00263 17.7586 6.77714C16.3199 5.55 14.4145 4.81851 12.3937 4.73658ZM5.9658 5.11453C7.81196 3.80477 10.1176 3.14306 12.4545 3.23781C14.7914 3.33256 17.0232 4.17838 18.732 5.63589C20.4427 7.09505 21.517 9.0736 21.7265 11.2118C21.9361 13.3512 21.2622 15.474 19.8526 17.1841C18.4453 18.8915 16.4033 20.0702 14.1175 20.523C11.9189 20.9586 9.61882 20.6985 7.60951 19.786L3.15608 20.7335C2.89298 20.7895 2.62004 20.7003 2.44079 20.4997C2.26154 20.2992 2.20342 20.018 2.28849 19.7628L3.47481 16.2038C2.39735 14.449 2.0181 12.4046 2.42112 10.4135C2.84814 8.30381 4.11805 6.42541 5.9658 5.11453Z" fill="#F0F7F8"/>
</svg>
