<svg width="1439" height="1439" viewBox="0 0 1439 1439" fill="none" xmlns="http://www.w3.org/2000/svg">
<g filter="url(#filter0_f_234_6218)">
<path d="M1436.5 719.5C1436.5 1115.49 1115.49 1436.5 719.5 1436.5C323.512 1436.5 2.5 1115.49 2.5 719.5C2.5 323.512 323.512 2.5 719.5 2.5C1115.49 2.5 1436.5 323.512 1436.5 719.5Z" stroke="#9DCF7F"/>
</g>
<g filter="url(#filter1_f_234_6218)">
<path d="M778.5 719.5C778.5 752.085 752.085 778.5 719.5 778.5C686.915 778.5 660.5 752.085 660.5 719.5C660.5 686.915 686.915 660.5 719.5 660.5C752.085 660.5 778.5 686.915 778.5 719.5Z" stroke="#D9F3CA"/>
</g>
<g filter="url(#filter2_f_234_6218)">
<path d="M719.5 1386.16C1087.68 1386.16 1386.16 1087.68 1386.16 719.5C1386.16 351.317 1087.68 52.845 719.5 52.845C351.317 52.845 52.845 351.317 52.845 719.5C52.845 1087.68 351.317 1386.16 719.5 1386.16Z" stroke="#A2D285"/>
</g>
<g filter="url(#filter3_f_234_6218)">
<path d="M719.5 1337.26C1060.68 1337.26 1337.26 1060.68 1337.26 719.5C1337.26 378.32 1060.68 101.739 719.5 101.739C378.32 101.739 101.739 378.32 101.739 719.5C101.739 1060.68 378.32 1337.26 719.5 1337.26Z" stroke="#A6D48A"/>
</g>
<g filter="url(#filter4_f_234_6218)">
<path d="M719.5 1290.32C1034.75 1290.32 1290.32 1034.75 1290.32 719.5C1290.32 404.246 1034.75 148.681 719.5 148.681C404.246 148.681 148.681 404.246 148.681 719.5C148.681 1034.75 404.246 1290.32 719.5 1290.32Z" stroke="#AAD790"/>
</g>
<g filter="url(#filter5_f_234_6218)">
<path d="M719.5 1245.33C1009.91 1245.33 1245.33 1009.91 1245.33 719.5C1245.33 429.094 1009.91 193.673 719.5 193.673C429.094 193.673 193.673 429.094 193.673 719.5C193.673 1009.91 429.094 1245.33 719.5 1245.33Z" stroke="#AED995"/>
</g>
<g filter="url(#filter6_f_234_6218)">
<path d="M719.5 1202.29C986.136 1202.29 1202.29 986.136 1202.29 719.5C1202.29 452.864 986.136 236.713 719.5 236.713C452.864 236.713 236.713 452.864 236.713 719.5C236.713 986.136 452.864 1202.29 719.5 1202.29Z" stroke="#B2DC9A"/>
</g>
<g filter="url(#filter7_f_234_6218)">
<path d="M719.5 1161.2C963.443 1161.2 1161.2 963.443 1161.2 719.5C1161.2 475.557 963.443 277.802 719.5 277.802C475.557 277.802 277.802 475.557 277.802 719.5C277.802 963.443 475.557 1161.2 719.5 1161.2Z" stroke="#B6DE9E"/>
</g>
<g filter="url(#filter8_f_234_6218)">
<path d="M719.5 1122.06C941.828 1122.06 1122.06 941.828 1122.06 719.5C1122.06 497.172 941.828 316.94 719.5 316.94C497.172 316.94 316.94 497.172 316.94 719.5C316.94 941.828 497.172 1122.06 719.5 1122.06Z" stroke="#BAE0A3"/>
</g>
<g filter="url(#filter9_f_234_6218)">
<path d="M719.5 1084.87C921.29 1084.87 1084.87 921.29 1084.87 719.5C1084.87 517.71 921.29 354.127 719.5 354.127C517.71 354.127 354.127 517.71 354.127 719.5C354.127 921.29 517.71 1084.87 719.5 1084.87Z" stroke="#BDE2A7"/>
</g>
<g filter="url(#filter10_f_234_6218)">
<path d="M719.5 1049.64C901.83 1049.64 1049.64 901.83 1049.64 719.5C1049.64 537.17 901.83 389.363 719.5 389.363C537.17 389.363 389.363 537.17 389.363 719.5C389.363 901.83 537.17 1049.64 719.5 1049.64Z" stroke="#C0E4AB"/>
</g>
<g filter="url(#filter11_f_234_6218)">
<path d="M719.5 1016.35C883.447 1016.35 1016.35 883.447 1016.35 719.5C1016.35 555.553 883.447 422.647 719.5 422.647C555.553 422.647 422.647 555.553 422.647 719.5C422.647 883.447 555.553 1016.35 719.5 1016.35Z" stroke="#C3E6AF"/>
</g>
<g filter="url(#filter12_f_234_6218)">
<path d="M719.5 985.02C866.142 985.02 985.02 866.142 985.02 719.5C985.02 572.858 866.142 453.98 719.5 453.98C572.858 453.98 453.98 572.858 453.98 719.5C453.98 866.142 572.858 985.02 719.5 985.02Z" stroke="#C6E8B3"/>
</g>
<g filter="url(#filter13_f_234_6218)">
<path d="M719.5 955.637C849.915 955.637 955.637 849.915 955.637 719.5C955.637 589.085 849.915 483.363 719.5 483.363C589.085 483.363 483.363 589.085 483.363 719.5C483.363 849.915 589.085 955.637 719.5 955.637Z" stroke="#C9E9B6"/>
</g>
<g filter="url(#filter14_f_234_6218)">
<path d="M719.5 928.206C834.765 928.206 928.206 834.765 928.206 719.5C928.206 604.235 834.765 510.794 719.5 510.794C604.235 510.794 510.794 604.235 510.794 719.5C510.794 834.765 604.235 928.206 719.5 928.206Z" stroke="#CBEBB9"/>
</g>
<g filter="url(#filter15_f_234_6218)">
<path d="M719.5 902.726C820.693 902.726 902.726 820.693 902.726 719.5C902.726 618.307 820.693 536.273 719.5 536.273C618.307 536.273 536.273 618.307 536.273 719.5C536.273 820.693 618.307 902.726 719.5 902.726Z" stroke="#CEECBC"/>
</g>
<g filter="url(#filter16_f_234_6218)">
<path d="M719.5 879.198C807.699 879.198 879.198 807.699 879.198 719.5C879.198 631.301 807.699 559.802 719.5 559.802C631.301 559.802 559.802 631.301 559.802 719.5C559.802 807.699 631.301 879.198 719.5 879.198Z" stroke="#D0EEBF"/>
</g>
<g filter="url(#filter17_f_234_6218)">
<path d="M719.5 857.62C795.782 857.62 857.62 795.782 857.62 719.5C857.62 643.218 795.782 581.38 719.5 581.38C643.218 581.38 581.38 643.218 581.38 719.5C581.38 795.782 643.218 857.62 719.5 857.62Z" stroke="#D2EFC1"/>
</g>
<g filter="url(#filter18_f_234_6218)">
<path d="M719.5 837.994C784.942 837.994 837.994 784.942 837.994 719.5C837.994 654.058 784.942 601.006 719.5 601.006C654.058 601.006 601.006 654.058 601.006 719.5C601.006 784.942 654.058 837.994 719.5 837.994Z" stroke="#D4F0C3"/>
</g>
<g filter="url(#filter19_f_234_6218)">
<path d="M719.5 820.319C775.181 820.319 820.319 775.181 820.319 719.5C820.319 663.819 775.181 618.681 719.5 618.681C663.819 618.681 618.681 663.819 618.681 719.5C618.681 775.181 663.819 820.319 719.5 820.319Z" stroke="#D5F1C5"/>
</g>
<g filter="url(#filter20_f_234_6218)">
<path d="M719.5 804.595C766.496 804.595 804.595 766.496 804.595 719.5C804.595 672.503 766.496 634.405 719.5 634.405C672.503 634.405 634.405 672.503 634.405 719.5C634.405 766.496 672.503 804.595 719.5 804.595Z" stroke="#D7F2C7"/>
</g>
<g filter="url(#filter21_f_234_6218)">
<path d="M719.5 790.822C758.89 790.822 790.822 758.89 790.822 719.5C790.822 680.11 758.89 648.178 719.5 648.178C680.11 648.178 648.178 680.11 648.178 719.5C648.178 758.89 680.11 790.822 719.5 790.822Z" stroke="#D8F2C9"/>
</g>
<defs>
<filter id="filter0_f_234_6218" x="0" y="0" width="1439" height="1439" filterUnits="userSpaceOnUse" color-interpolation-filters="sRGB">
<feFlood flood-opacity="0" result="BackgroundImageFix"/>
<feBlend mode="normal" in="SourceGraphic" in2="BackgroundImageFix" result="shape"/>
<feGaussianBlur stdDeviation="1" result="effect1_foregroundBlur_234_6218"/>
</filter>
<filter id="filter1_f_234_6218" x="658" y="658" width="123" height="123" filterUnits="userSpaceOnUse" color-interpolation-filters="sRGB">
<feFlood flood-opacity="0" result="BackgroundImageFix"/>
<feBlend mode="normal" in="SourceGraphic" in2="BackgroundImageFix" result="shape"/>
<feGaussianBlur stdDeviation="1" result="effect1_foregroundBlur_234_6218"/>
</filter>
<filter id="filter2_f_234_6218" x="50.345" y="50.345" width="1338.31" height="1338.31" filterUnits="userSpaceOnUse" color-interpolation-filters="sRGB">
<feFlood flood-opacity="0" result="BackgroundImageFix"/>
<feBlend mode="normal" in="SourceGraphic" in2="BackgroundImageFix" result="shape"/>
<feGaussianBlur stdDeviation="1" result="effect1_foregroundBlur_234_6218"/>
</filter>
<filter id="filter3_f_234_6218" x="99.2388" y="99.2388" width="1240.52" height="1240.52" filterUnits="userSpaceOnUse" color-interpolation-filters="sRGB">
<feFlood flood-opacity="0" result="BackgroundImageFix"/>
<feBlend mode="normal" in="SourceGraphic" in2="BackgroundImageFix" result="shape"/>
<feGaussianBlur stdDeviation="1" result="effect1_foregroundBlur_234_6218"/>
</filter>
<filter id="filter4_f_234_6218" x="146.181" y="146.181" width="1146.64" height="1146.64" filterUnits="userSpaceOnUse" color-interpolation-filters="sRGB">
<feFlood flood-opacity="0" result="BackgroundImageFix"/>
<feBlend mode="normal" in="SourceGraphic" in2="BackgroundImageFix" result="shape"/>
<feGaussianBlur stdDeviation="1" result="effect1_foregroundBlur_234_6218"/>
</filter>
<filter id="filter5_f_234_6218" x="191.173" y="191.173" width="1056.65" height="1056.65" filterUnits="userSpaceOnUse" color-interpolation-filters="sRGB">
<feFlood flood-opacity="0" result="BackgroundImageFix"/>
<feBlend mode="normal" in="SourceGraphic" in2="BackgroundImageFix" result="shape"/>
<feGaussianBlur stdDeviation="1" result="effect1_foregroundBlur_234_6218"/>
</filter>
<filter id="filter6_f_234_6218" x="234.213" y="234.213" width="970.574" height="970.574" filterUnits="userSpaceOnUse" color-interpolation-filters="sRGB">
<feFlood flood-opacity="0" result="BackgroundImageFix"/>
<feBlend mode="normal" in="SourceGraphic" in2="BackgroundImageFix" result="shape"/>
<feGaussianBlur stdDeviation="1" result="effect1_foregroundBlur_234_6218"/>
</filter>
<filter id="filter7_f_234_6218" x="275.302" y="275.302" width="888.396" height="888.396" filterUnits="userSpaceOnUse" color-interpolation-filters="sRGB">
<feFlood flood-opacity="0" result="BackgroundImageFix"/>
<feBlend mode="normal" in="SourceGraphic" in2="BackgroundImageFix" result="shape"/>
<feGaussianBlur stdDeviation="1" result="effect1_foregroundBlur_234_6218"/>
</filter>
<filter id="filter8_f_234_6218" x="314.44" y="314.44" width="810.12" height="810.12" filterUnits="userSpaceOnUse" color-interpolation-filters="sRGB">
<feFlood flood-opacity="0" result="BackgroundImageFix"/>
<feBlend mode="normal" in="SourceGraphic" in2="BackgroundImageFix" result="shape"/>
<feGaussianBlur stdDeviation="1" result="effect1_foregroundBlur_234_6218"/>
</filter>
<filter id="filter9_f_234_6218" x="351.627" y="351.627" width="735.746" height="735.746" filterUnits="userSpaceOnUse" color-interpolation-filters="sRGB">
<feFlood flood-opacity="0" result="BackgroundImageFix"/>
<feBlend mode="normal" in="SourceGraphic" in2="BackgroundImageFix" result="shape"/>
<feGaussianBlur stdDeviation="1" result="effect1_foregroundBlur_234_6218"/>
</filter>
<filter id="filter10_f_234_6218" x="386.863" y="386.863" width="665.275" height="665.275" filterUnits="userSpaceOnUse" color-interpolation-filters="sRGB">
<feFlood flood-opacity="0" result="BackgroundImageFix"/>
<feBlend mode="normal" in="SourceGraphic" in2="BackgroundImageFix" result="shape"/>
<feGaussianBlur stdDeviation="1" result="effect1_foregroundBlur_234_6218"/>
</filter>
<filter id="filter11_f_234_6218" x="420.147" y="420.147" width="598.706" height="598.706" filterUnits="userSpaceOnUse" color-interpolation-filters="sRGB">
<feFlood flood-opacity="0" result="BackgroundImageFix"/>
<feBlend mode="normal" in="SourceGraphic" in2="BackgroundImageFix" result="shape"/>
<feGaussianBlur stdDeviation="1" result="effect1_foregroundBlur_234_6218"/>
</filter>
<filter id="filter12_f_234_6218" x="451.48" y="451.48" width="536.039" height="536.039" filterUnits="userSpaceOnUse" color-interpolation-filters="sRGB">
<feFlood flood-opacity="0" result="BackgroundImageFix"/>
<feBlend mode="normal" in="SourceGraphic" in2="BackgroundImageFix" result="shape"/>
<feGaussianBlur stdDeviation="1" result="effect1_foregroundBlur_234_6218"/>
</filter>
<filter id="filter13_f_234_6218" x="480.863" y="480.863" width="477.275" height="477.275" filterUnits="userSpaceOnUse" color-interpolation-filters="sRGB">
<feFlood flood-opacity="0" result="BackgroundImageFix"/>
<feBlend mode="normal" in="SourceGraphic" in2="BackgroundImageFix" result="shape"/>
<feGaussianBlur stdDeviation="1" result="effect1_foregroundBlur_234_6218"/>
</filter>
<filter id="filter14_f_234_6218" x="508.294" y="508.294" width="422.413" height="422.413" filterUnits="userSpaceOnUse" color-interpolation-filters="sRGB">
<feFlood flood-opacity="0" result="BackgroundImageFix"/>
<feBlend mode="normal" in="SourceGraphic" in2="BackgroundImageFix" result="shape"/>
<feGaussianBlur stdDeviation="1" result="effect1_foregroundBlur_234_6218"/>
</filter>
<filter id="filter15_f_234_6218" x="533.773" y="533.773" width="371.453" height="371.453" filterUnits="userSpaceOnUse" color-interpolation-filters="sRGB">
<feFlood flood-opacity="0" result="BackgroundImageFix"/>
<feBlend mode="normal" in="SourceGraphic" in2="BackgroundImageFix" result="shape"/>
<feGaussianBlur stdDeviation="1" result="effect1_foregroundBlur_234_6218"/>
</filter>
<filter id="filter16_f_234_6218" x="557.302" y="557.302" width="324.396" height="324.396" filterUnits="userSpaceOnUse" color-interpolation-filters="sRGB">
<feFlood flood-opacity="0" result="BackgroundImageFix"/>
<feBlend mode="normal" in="SourceGraphic" in2="BackgroundImageFix" result="shape"/>
<feGaussianBlur stdDeviation="1" result="effect1_foregroundBlur_234_6218"/>
</filter>
<filter id="filter17_f_234_6218" x="578.88" y="578.88" width="281.24" height="281.24" filterUnits="userSpaceOnUse" color-interpolation-filters="sRGB">
<feFlood flood-opacity="0" result="BackgroundImageFix"/>
<feBlend mode="normal" in="SourceGraphic" in2="BackgroundImageFix" result="shape"/>
<feGaussianBlur stdDeviation="1" result="effect1_foregroundBlur_234_6218"/>
</filter>
<filter id="filter18_f_234_6218" x="598.506" y="598.506" width="241.988" height="241.988" filterUnits="userSpaceOnUse" color-interpolation-filters="sRGB">
<feFlood flood-opacity="0" result="BackgroundImageFix"/>
<feBlend mode="normal" in="SourceGraphic" in2="BackgroundImageFix" result="shape"/>
<feGaussianBlur stdDeviation="1" result="effect1_foregroundBlur_234_6218"/>
</filter>
<filter id="filter19_f_234_6218" x="616.181" y="616.181" width="206.637" height="206.637" filterUnits="userSpaceOnUse" color-interpolation-filters="sRGB">
<feFlood flood-opacity="0" result="BackgroundImageFix"/>
<feBlend mode="normal" in="SourceGraphic" in2="BackgroundImageFix" result="shape"/>
<feGaussianBlur stdDeviation="1" result="effect1_foregroundBlur_234_6218"/>
</filter>
<filter id="filter20_f_234_6218" x="631.905" y="631.905" width="175.189" height="175.189" filterUnits="userSpaceOnUse" color-interpolation-filters="sRGB">
<feFlood flood-opacity="0" result="BackgroundImageFix"/>
<feBlend mode="normal" in="SourceGraphic" in2="BackgroundImageFix" result="shape"/>
<feGaussianBlur stdDeviation="1" result="effect1_foregroundBlur_234_6218"/>
</filter>
<filter id="filter21_f_234_6218" x="645.678" y="645.678" width="147.644" height="147.643" filterUnits="userSpaceOnUse" color-interpolation-filters="sRGB">
<feFlood flood-opacity="0" result="BackgroundImageFix"/>
<feBlend mode="normal" in="SourceGraphic" in2="BackgroundImageFix" result="shape"/>
<feGaussianBlur stdDeviation="1" result="effect1_foregroundBlur_234_6218"/>
</filter>
</defs>
</svg>
