<svg width="1440" height="1138" viewBox="0 0 1440 1138" fill="none" xmlns="http://www.w3.org/2000/svg">
<g filter="url(#filter0_f_321_2120)">
<g filter="url(#filter1_f_321_2120)">
<path d="M-11.2712 1088.01C230.765 1093.93 311.431 1097.13 541.216 932.781C902.218 960.779 942.181 934.146 1183.36 782.41C1339.24 817.94 1510.79 805.758 1643.3 710.77" stroke="#BDE9A3"/>
</g>
<g filter="url(#filter2_f_321_2120)">
<path d="M-64.9468 411.43C177.089 417.351 257.755 420.551 487.54 256.199C848.543 284.196 888.506 257.563 1129.69 105.828C1285.57 141.357 1457.11 129.176 1589.62 34.1875" stroke="#EFCA7A"/>
</g>
<g filter="url(#filter3_f_321_2120)">
<path d="M-15.5826 1033.67C226.454 1039.59 307.119 1042.79 536.905 878.435C897.907 906.433 937.87 879.8 1179.05 728.064C1334.93 763.594 1506.48 751.412 1638.99 656.424" stroke="#C1E7A0"/>
</g>
<g filter="url(#filter4_f_321_2120)">
<path d="M-19.7185 981.533C222.318 987.454 302.983 990.655 532.769 826.302C893.771 854.299 933.734 827.666 1174.92 675.931C1330.79 711.46 1502.34 699.279 1634.85 604.29" stroke="#C5E49D"/>
</g>
<g filter="url(#filter5_f_321_2120)">
<path d="M-23.6789 931.613C218.357 937.534 299.023 940.734 528.808 776.381C889.811 804.379 929.773 777.746 1170.96 626.01C1326.83 661.54 1498.38 649.358 1630.89 554.37" stroke="#C9E29A"/>
</g>
<g filter="url(#filter6_f_321_2120)">
<path d="M-27.4637 883.905C214.572 889.826 295.238 893.026 525.023 728.674C886.026 756.671 925.989 730.038 1167.17 578.303C1323.05 613.832 1494.6 601.65 1627.1 506.662" stroke="#CCE097"/>
</g>
<g filter="url(#filter7_f_321_2120)">
<path d="M-31.073 838.41C210.963 844.331 291.629 847.531 521.414 683.179C882.417 711.176 922.379 684.543 1163.56 532.807C1319.44 568.337 1490.99 556.155 1623.5 461.167" stroke="#CFDE94"/>
</g>
<g filter="url(#filter8_f_321_2120)">
<path d="M-34.5067 795.128C207.529 801.048 288.195 804.249 517.98 639.896C878.983 667.894 918.946 641.261 1160.13 489.525C1316.01 525.055 1487.55 512.873 1620.06 417.885" stroke="#D3DC91"/>
</g>
<g filter="url(#filter9_f_321_2120)">
<path d="M-37.7649 754.058C204.271 759.979 284.937 763.18 514.722 598.827C875.725 626.825 915.688 600.191 1156.87 448.456C1312.75 483.986 1484.3 471.804 1616.8 376.816" stroke="#D6DA8F"/>
</g>
<g filter="url(#filter10_f_321_2120)">
<path d="M-40.8475 715.202C201.189 721.123 281.854 724.323 511.64 559.971C872.642 587.968 912.605 561.335 1153.79 409.599C1309.67 445.129 1481.21 432.947 1613.72 337.959" stroke="#D9D88C"/>
</g>
<g filter="url(#filter11_f_321_2120)">
<path d="M-43.7546 678.558C198.282 684.479 278.947 687.679 508.733 523.327C869.735 551.324 909.698 524.691 1150.88 372.956C1306.76 408.485 1478.31 396.303 1610.81 301.315" stroke="#DBD68A"/>
</g>
<g filter="url(#filter12_f_321_2120)">
<path d="M-46.4861 644.127C195.55 650.048 276.216 653.248 506.001 488.896C867.004 516.893 906.966 490.26 1148.15 338.525C1304.03 374.054 1475.58 361.872 1608.08 266.884" stroke="#DED588"/>
</g>
<g filter="url(#filter13_f_321_2120)">
<path d="M-49.0421 611.909C192.994 617.83 273.66 621.03 503.445 456.678C864.447 484.675 904.41 458.042 1145.59 306.306C1301.47 341.836 1473.02 329.654 1605.53 234.666" stroke="#E0D386"/>
</g>
<g filter="url(#filter14_f_321_2120)">
<path d="M-51.4225 581.904C190.614 587.824 271.28 591.025 501.065 426.672C862.067 454.67 902.03 428.037 1143.21 276.301C1299.09 311.831 1470.64 299.649 1603.15 204.661" stroke="#E2D284"/>
</g>
<g filter="url(#filter15_f_321_2120)">
<path d="M-53.6274 554.111C188.409 560.032 269.075 563.232 498.86 398.88C859.862 426.877 899.825 400.244 1141.01 248.508C1296.89 284.038 1468.43 271.856 1600.94 176.868" stroke="#E4D183"/>
</g>
<g filter="url(#filter16_f_321_2120)">
<path d="M-55.6567 528.531C186.379 534.452 267.045 537.652 496.83 373.3C857.833 401.297 897.796 374.664 1138.98 222.928C1294.86 258.458 1466.4 246.276 1598.91 151.288" stroke="#E6CF81"/>
</g>
<g filter="url(#filter17_f_321_2120)">
<path d="M-57.5105 505.164C184.526 511.085 265.191 514.285 494.977 349.933C855.979 377.93 895.942 351.297 1137.12 199.561C1293 235.091 1464.55 222.909 1597.06 127.921" stroke="#E8CE80"/>
</g>
<g filter="url(#filter18_f_321_2120)">
<path d="M-59.1887 484.01C182.847 489.93 263.513 493.131 493.298 328.778C854.301 356.776 894.264 330.143 1135.45 178.407C1291.32 213.937 1462.87 201.755 1595.38 106.767" stroke="#EACD7E"/>
</g>
<g filter="url(#filter19_f_321_2120)">
<path d="M-60.6914 465.068C181.345 470.989 262.011 474.189 491.796 309.837C852.798 337.834 892.761 311.201 1133.94 159.466C1289.82 194.995 1461.37 182.813 1593.88 87.8254" stroke="#EBCC7D"/>
</g>
<g filter="url(#filter20_f_321_2120)">
<path d="M-62.0185 448.339C180.018 454.26 260.683 457.461 490.469 293.108C851.471 321.106 891.434 294.473 1132.62 142.737C1288.49 178.267 1460.04 166.085 1592.55 71.0967" stroke="#ECCC7C"/>
</g>
<g filter="url(#filter21_f_321_2120)">
<path d="M-63.1702 433.823C178.866 439.744 259.532 442.945 489.317 278.592C850.319 306.59 890.282 279.957 1131.46 128.221C1287.34 163.751 1458.89 151.569 1591.4 56.5808" stroke="#EDCB7B"/>
</g>
<g filter="url(#filter22_f_321_2120)">
<path d="M-64.1462 421.52C177.89 427.441 258.556 430.642 488.341 266.289C849.343 294.287 889.306 267.654 1130.49 115.918C1286.37 151.448 1457.92 139.266 1590.42 44.2778" stroke="#EECA7B"/>
</g>
</g>
<defs>
<filter id="filter0_f_321_2120" x="-66.959" y="31.7811" width="1712.55" height="1060.71" filterUnits="userSpaceOnUse" color-interpolation-filters="sRGB">
<feFlood flood-opacity="0" result="BackgroundImageFix"/>
<feBlend mode="normal" in="SourceGraphic" in2="BackgroundImageFix" result="shape"/>
<feGaussianBlur stdDeviation="1" result="effect1_foregroundBlur_321_2120"/>
</filter>
<filter id="filter1_f_321_2120" x="-12.2834" y="709.364" width="1656.87" height="382.124" filterUnits="userSpaceOnUse" color-interpolation-filters="sRGB">
<feFlood flood-opacity="0" result="BackgroundImageFix"/>
<feBlend mode="normal" in="SourceGraphic" in2="BackgroundImageFix" result="shape"/>
<feGaussianBlur stdDeviation="0.5" result="effect1_foregroundBlur_321_2120"/>
</filter>
<filter id="filter2_f_321_2120" x="-65.959" y="32.7811" width="1656.87" height="382.124" filterUnits="userSpaceOnUse" color-interpolation-filters="sRGB">
<feFlood flood-opacity="0" result="BackgroundImageFix"/>
<feBlend mode="normal" in="SourceGraphic" in2="BackgroundImageFix" result="shape"/>
<feGaussianBlur stdDeviation="0.5" result="effect1_foregroundBlur_321_2120"/>
</filter>
<filter id="filter3_f_321_2120" x="-16.5948" y="655.017" width="1656.87" height="382.124" filterUnits="userSpaceOnUse" color-interpolation-filters="sRGB">
<feFlood flood-opacity="0" result="BackgroundImageFix"/>
<feBlend mode="normal" in="SourceGraphic" in2="BackgroundImageFix" result="shape"/>
<feGaussianBlur stdDeviation="0.5" result="effect1_foregroundBlur_321_2120"/>
</filter>
<filter id="filter4_f_321_2120" x="-20.7307" y="602.884" width="1656.87" height="382.124" filterUnits="userSpaceOnUse" color-interpolation-filters="sRGB">
<feFlood flood-opacity="0" result="BackgroundImageFix"/>
<feBlend mode="normal" in="SourceGraphic" in2="BackgroundImageFix" result="shape"/>
<feGaussianBlur stdDeviation="0.5" result="effect1_foregroundBlur_321_2120"/>
</filter>
<filter id="filter5_f_321_2120" x="-24.6912" y="552.964" width="1656.87" height="382.124" filterUnits="userSpaceOnUse" color-interpolation-filters="sRGB">
<feFlood flood-opacity="0" result="BackgroundImageFix"/>
<feBlend mode="normal" in="SourceGraphic" in2="BackgroundImageFix" result="shape"/>
<feGaussianBlur stdDeviation="0.5" result="effect1_foregroundBlur_321_2120"/>
</filter>
<filter id="filter6_f_321_2120" x="-28.476" y="505.256" width="1656.87" height="382.124" filterUnits="userSpaceOnUse" color-interpolation-filters="sRGB">
<feFlood flood-opacity="0" result="BackgroundImageFix"/>
<feBlend mode="normal" in="SourceGraphic" in2="BackgroundImageFix" result="shape"/>
<feGaussianBlur stdDeviation="0.5" result="effect1_foregroundBlur_321_2120"/>
</filter>
<filter id="filter7_f_321_2120" x="-32.0852" y="459.761" width="1656.87" height="382.124" filterUnits="userSpaceOnUse" color-interpolation-filters="sRGB">
<feFlood flood-opacity="0" result="BackgroundImageFix"/>
<feBlend mode="normal" in="SourceGraphic" in2="BackgroundImageFix" result="shape"/>
<feGaussianBlur stdDeviation="0.5" result="effect1_foregroundBlur_321_2120"/>
</filter>
<filter id="filter8_f_321_2120" x="-35.5189" y="416.479" width="1656.87" height="382.124" filterUnits="userSpaceOnUse" color-interpolation-filters="sRGB">
<feFlood flood-opacity="0" result="BackgroundImageFix"/>
<feBlend mode="normal" in="SourceGraphic" in2="BackgroundImageFix" result="shape"/>
<feGaussianBlur stdDeviation="0.5" result="effect1_foregroundBlur_321_2120"/>
</filter>
<filter id="filter9_f_321_2120" x="-38.7771" y="375.409" width="1656.87" height="382.124" filterUnits="userSpaceOnUse" color-interpolation-filters="sRGB">
<feFlood flood-opacity="0" result="BackgroundImageFix"/>
<feBlend mode="normal" in="SourceGraphic" in2="BackgroundImageFix" result="shape"/>
<feGaussianBlur stdDeviation="0.5" result="effect1_foregroundBlur_321_2120"/>
</filter>
<filter id="filter10_f_321_2120" x="-41.8597" y="336.553" width="1656.87" height="382.124" filterUnits="userSpaceOnUse" color-interpolation-filters="sRGB">
<feFlood flood-opacity="0" result="BackgroundImageFix"/>
<feBlend mode="normal" in="SourceGraphic" in2="BackgroundImageFix" result="shape"/>
<feGaussianBlur stdDeviation="0.5" result="effect1_foregroundBlur_321_2120"/>
</filter>
<filter id="filter11_f_321_2120" x="-44.7668" y="299.909" width="1656.87" height="382.124" filterUnits="userSpaceOnUse" color-interpolation-filters="sRGB">
<feFlood flood-opacity="0" result="BackgroundImageFix"/>
<feBlend mode="normal" in="SourceGraphic" in2="BackgroundImageFix" result="shape"/>
<feGaussianBlur stdDeviation="0.5" result="effect1_foregroundBlur_321_2120"/>
</filter>
<filter id="filter12_f_321_2120" x="-47.4983" y="265.478" width="1656.87" height="382.124" filterUnits="userSpaceOnUse" color-interpolation-filters="sRGB">
<feFlood flood-opacity="0" result="BackgroundImageFix"/>
<feBlend mode="normal" in="SourceGraphic" in2="BackgroundImageFix" result="shape"/>
<feGaussianBlur stdDeviation="0.5" result="effect1_foregroundBlur_321_2120"/>
</filter>
<filter id="filter13_f_321_2120" x="-50.0543" y="233.26" width="1656.87" height="382.124" filterUnits="userSpaceOnUse" color-interpolation-filters="sRGB">
<feFlood flood-opacity="0" result="BackgroundImageFix"/>
<feBlend mode="normal" in="SourceGraphic" in2="BackgroundImageFix" result="shape"/>
<feGaussianBlur stdDeviation="0.5" result="effect1_foregroundBlur_321_2120"/>
</filter>
<filter id="filter14_f_321_2120" x="-52.4347" y="203.255" width="1656.87" height="382.124" filterUnits="userSpaceOnUse" color-interpolation-filters="sRGB">
<feFlood flood-opacity="0" result="BackgroundImageFix"/>
<feBlend mode="normal" in="SourceGraphic" in2="BackgroundImageFix" result="shape"/>
<feGaussianBlur stdDeviation="0.5" result="effect1_foregroundBlur_321_2120"/>
</filter>
<filter id="filter15_f_321_2120" x="-54.6396" y="175.462" width="1656.87" height="382.124" filterUnits="userSpaceOnUse" color-interpolation-filters="sRGB">
<feFlood flood-opacity="0" result="BackgroundImageFix"/>
<feBlend mode="normal" in="SourceGraphic" in2="BackgroundImageFix" result="shape"/>
<feGaussianBlur stdDeviation="0.5" result="effect1_foregroundBlur_321_2120"/>
</filter>
<filter id="filter16_f_321_2120" x="-56.6689" y="149.882" width="1656.87" height="382.124" filterUnits="userSpaceOnUse" color-interpolation-filters="sRGB">
<feFlood flood-opacity="0" result="BackgroundImageFix"/>
<feBlend mode="normal" in="SourceGraphic" in2="BackgroundImageFix" result="shape"/>
<feGaussianBlur stdDeviation="0.5" result="effect1_foregroundBlur_321_2120"/>
</filter>
<filter id="filter17_f_321_2120" x="-58.5227" y="126.515" width="1656.87" height="382.124" filterUnits="userSpaceOnUse" color-interpolation-filters="sRGB">
<feFlood flood-opacity="0" result="BackgroundImageFix"/>
<feBlend mode="normal" in="SourceGraphic" in2="BackgroundImageFix" result="shape"/>
<feGaussianBlur stdDeviation="0.5" result="effect1_foregroundBlur_321_2120"/>
</filter>
<filter id="filter18_f_321_2120" x="-60.2009" y="105.361" width="1656.87" height="382.124" filterUnits="userSpaceOnUse" color-interpolation-filters="sRGB">
<feFlood flood-opacity="0" result="BackgroundImageFix"/>
<feBlend mode="normal" in="SourceGraphic" in2="BackgroundImageFix" result="shape"/>
<feGaussianBlur stdDeviation="0.5" result="effect1_foregroundBlur_321_2120"/>
</filter>
<filter id="filter19_f_321_2120" x="-61.7036" y="86.4191" width="1656.87" height="382.124" filterUnits="userSpaceOnUse" color-interpolation-filters="sRGB">
<feFlood flood-opacity="0" result="BackgroundImageFix"/>
<feBlend mode="normal" in="SourceGraphic" in2="BackgroundImageFix" result="shape"/>
<feGaussianBlur stdDeviation="0.5" result="effect1_foregroundBlur_321_2120"/>
</filter>
<filter id="filter20_f_321_2120" x="-63.0308" y="69.6903" width="1656.87" height="382.124" filterUnits="userSpaceOnUse" color-interpolation-filters="sRGB">
<feFlood flood-opacity="0" result="BackgroundImageFix"/>
<feBlend mode="normal" in="SourceGraphic" in2="BackgroundImageFix" result="shape"/>
<feGaussianBlur stdDeviation="0.5" result="effect1_foregroundBlur_321_2120"/>
</filter>
<filter id="filter21_f_321_2120" x="-64.1824" y="55.1744" width="1656.87" height="382.124" filterUnits="userSpaceOnUse" color-interpolation-filters="sRGB">
<feFlood flood-opacity="0" result="BackgroundImageFix"/>
<feBlend mode="normal" in="SourceGraphic" in2="BackgroundImageFix" result="shape"/>
<feGaussianBlur stdDeviation="0.5" result="effect1_foregroundBlur_321_2120"/>
</filter>
<filter id="filter22_f_321_2120" x="-65.1584" y="42.8715" width="1656.87" height="382.124" filterUnits="userSpaceOnUse" color-interpolation-filters="sRGB">
<feFlood flood-opacity="0" result="BackgroundImageFix"/>
<feBlend mode="normal" in="SourceGraphic" in2="BackgroundImageFix" result="shape"/>
<feGaussianBlur stdDeviation="0.5" result="effect1_foregroundBlur_321_2120"/>
</filter>
</defs>
</svg>
